<?xml version="1.0" encoding="UTF-8"?>
<svg xmlns="http://www.w3.org/2000/svg" xmlns:xlink="http://www.w3.org/1999/xlink" width="32px" height="32px" viewBox="0 0 32 32" version="1.1">
<g id="surface1">
<path style=" stroke:none;fill-rule:nonzero;fill:rgb(0%,34.901962%,61.176473%);fill-opacity:1;" d="M 29.691406 23.953125 C 29.914062 23.570312 30.050781 23.136719 30.050781 22.746094 L 30.050781 9.195312 C 30.050781 8.804688 29.914062 8.371094 29.691406 7.984375 L 15.863281 15.96875 Z M 29.691406 23.953125 "/>
<path style=" stroke:none;fill-rule:nonzero;fill:rgb(0%,26.666668%,50.980395%);fill-opacity:1;" d="M 17.089844 31.648438 L 28.824219 24.871094 C 29.160156 24.679688 29.46875 24.339844 29.691406 23.953125 L 15.863281 15.96875 L 2.03125 23.953125 C 2.253906 24.339844 2.558594 24.675781 2.898438 24.871094 L 14.632812 31.648438 C 15.308594 32.035156 16.414062 32.035156 17.089844 31.648438 Z M 17.089844 31.648438 "/>
<path style=" stroke:none;fill-rule:nonzero;fill:rgb(39.607844%,60.392159%,82.352942%);fill-opacity:1;" d="M 29.691406 7.984375 C 29.46875 7.597656 29.160156 7.261719 28.824219 7.066406 L 17.089844 0.292969 C 16.414062 -0.0976562 15.308594 -0.0976562 14.632812 0.292969 L 2.898438 7.066406 C 2.222656 7.457031 1.671875 8.414062 1.671875 9.195312 L 1.671875 22.742188 C 1.671875 23.132812 1.808594 23.570312 2.03125 23.953125 L 15.859375 15.96875 Z M 29.691406 7.984375 "/>
<path style=" stroke:none;fill-rule:nonzero;fill:rgb(100%,100%,100%);fill-opacity:1;" d="M 15.859375 6.507812 C 10.644531 6.507812 6.402344 10.753906 6.402344 15.96875 C 6.402344 21.1875 10.644531 25.429688 15.859375 25.429688 C 19.226562 25.429688 22.367188 23.617188 24.054688 20.703125 L 19.960938 18.332031 C 19.113281 19.792969 17.546875 20.699219 15.859375 20.699219 C 13.253906 20.699219 11.128906 18.578125 11.128906 15.96875 C 11.128906 13.359375 13.253906 11.238281 15.859375 11.238281 C 17.542969 11.238281 19.117188 12.144531 19.957031 13.605469 L 24.054688 11.234375 C 22.367188 8.320312 19.226562 6.507812 15.859375 6.507812 Z M 23.21875 14.390625 L 23.21875 15.445312 L 22.167969 15.445312 L 22.167969 16.496094 L 23.21875 16.496094 L 23.21875 17.546875 L 24.269531 17.546875 L 24.269531 16.496094 L 25.320312 16.496094 L 25.320312 15.445312 L 24.269531 15.445312 L 24.269531 14.390625 Z M 27.160156 14.390625 L 27.160156 15.445312 L 26.109375 15.445312 L 26.109375 16.496094 L 27.160156 16.496094 L 27.160156 17.546875 L 28.214844 17.546875 L 28.214844 16.496094 L 29.265625 16.496094 L 29.265625 15.445312 L 28.214844 15.445312 L 28.214844 14.390625 Z M 27.160156 14.390625 "/>
</g>
</svg>
