<?xml version="1.0" encoding="UTF-8"?>
<svg xmlns="http://www.w3.org/2000/svg" xmlns:xlink="http://www.w3.org/1999/xlink" width="px" height="px" viewBox="0 0 96 96" version="1.1">
<g id="surface1">
<path style=" stroke:none;fill-rule:nonzero;fill:rgb(8.235294%,44.705883%,71.372551%);fill-opacity:1;" d="M 14.109375 85.59375 L 6.570312 1.015625 L 89.429688 1.015625 L 81.882812 85.578125 L 47.949219 94.988281 Z M 14.109375 85.59375 "/>
<path style=" stroke:none;fill-rule:nonzero;fill:rgb(20%,66.274512%,86.274511%);fill-opacity:1;" d="M 48 87.796875 L 75.421875 80.195312 L 81.871094 7.929688 L 48 7.929688 Z M 48 87.796875 "/>
<path style=" stroke:none;fill-rule:nonzero;fill:rgb(100%,100%,100%);fill-opacity:1;" d="M 48 38.570312 L 61.726562 38.570312 L 62.675781 27.949219 L 48 27.949219 L 48 17.578125 L 74.011719 17.578125 L 73.761719 20.359375 L 71.214844 48.945312 L 48 48.945312 Z M 48 38.570312 "/>
<path style=" stroke:none;fill-rule:nonzero;fill:rgb(92.156863%,92.156863%,92.156863%);fill-opacity:1;" d="M 48.0625 65.511719 L 48.015625 65.523438 L 36.464844 62.40625 L 35.726562 54.132812 L 25.3125 54.132812 L 26.765625 70.421875 L 48.015625 76.316406 L 48.0625 76.304688 Z M 48.0625 65.511719 "/>
<path style=" stroke:none;fill-rule:nonzero;fill:rgb(100%,100%,100%);fill-opacity:1;" d="M 60.84375 48.507812 L 59.597656 62.398438 L 48.027344 65.519531 L 48.027344 76.3125 L 69.292969 70.417969 L 69.449219 68.667969 L 71.253906 48.507812 Z M 60.84375 48.507812 "/>
<path style=" stroke:none;fill-rule:nonzero;fill:rgb(92.156863%,92.156863%,92.156863%);fill-opacity:1;" d="M 48.035156 17.578125 L 48.035156 27.949219 L 22.980469 27.949219 L 22.773438 25.617188 L 22.300781 20.359375 L 22.050781 17.578125 Z M 48 38.574219 L 48 48.945312 L 36.59375 48.945312 L 36.386719 46.617188 L 35.914062 41.355469 L 35.664062 38.574219 Z M 48 38.574219 "/>
</g>
</svg>
