<?xml version="1.0" encoding="UTF-8"?>
<svg xmlns="http://www.w3.org/2000/svg" xmlns:xlink="http://www.w3.org/1999/xlink" width="px" height="px" viewBox="0 0 96 96" version="1.1">
<g id="surface1">
<path style=" stroke:none;fill-rule:nonzero;fill:rgb(89.411765%,30.19608%,14.901961%);fill-opacity:1;" d="M 14.277344 85.40625 L 6.773438 1.246094 L 89.226562 1.246094 L 81.714844 85.394531 L 47.949219 94.753906 Z M 14.277344 85.40625 "/>
<path style=" stroke:none;fill-rule:nonzero;fill:rgb(94.509804%,39.607844%,16.078432%);fill-opacity:1;" d="M 48 87.601562 L 75.285156 80.035156 L 81.703125 8.128906 L 48 8.128906 Z M 48 87.601562 "/>
<path style=" stroke:none;fill-rule:nonzero;fill:rgb(92.156863%,92.156863%,92.156863%);fill-opacity:1;" d="M 48 39.339844 L 34.339844 39.339844 L 33.398438 28.769531 L 48 28.769531 L 48 18.449219 L 22.117188 18.449219 L 22.363281 21.21875 L 24.902344 49.664062 L 48 49.664062 Z M 48 66.148438 L 47.953125 66.160156 L 36.460938 63.054688 L 35.726562 54.824219 L 25.363281 54.824219 L 26.808594 71.03125 L 47.953125 76.902344 L 48 76.886719 Z M 48 66.148438 "/>
<path style=" stroke:none;fill-rule:nonzero;fill:rgb(100%,100%,100%);fill-opacity:1;" d="M 47.964844 39.339844 L 47.964844 49.664062 L 60.675781 49.664062 L 59.476562 63.050781 L 47.964844 66.15625 L 47.964844 76.898438 L 69.125 71.03125 L 69.28125 69.289062 L 71.707031 42.113281 L 71.957031 39.339844 Z M 47.964844 18.449219 L 47.964844 28.769531 L 72.898438 28.769531 L 73.105469 26.453125 L 73.574219 21.21875 L 73.820312 18.449219 Z M 47.964844 18.449219 "/>
</g>
</svg>
