<?xml version="1.0" encoding="UTF-8"?>
<svg xmlns="http://www.w3.org/2000/svg" xmlns:xlink="http://www.w3.org/1999/xlink" width="75px" height="75px" viewBox="0 0 75 75" version="1.1">
<g id="surface1">
<rect x="0" y="0" width="75" height="75" style="fill:rgb(96.862745%,87.450981%,11.764706%);fill-opacity:1;stroke:none;"/>
<path style=" stroke:none;fill-rule:nonzero;fill:rgb(0%,0%,0%);fill-opacity:1;" d="M 19.71875 62.675781 L 25.460938 59.203125 C 26.566406 61.164062 27.574219 62.828125 29.992188 62.828125 C 32.304688 62.828125 33.765625 61.921875 33.765625 58.398438 L 33.765625 34.433594 L 40.816406 34.433594 L 40.816406 58.496094 C 40.816406 65.796875 36.535156 69.117188 30.292969 69.117188 C 24.652344 69.117188 21.382812 66.199219 19.71875 62.675781 M 44.644531 61.921875 L 50.382812 58.597656 C 51.890625 61.066406 53.855469 62.878906 57.328125 62.878906 C 60.25 62.878906 62.113281 61.417969 62.113281 59.402344 C 62.113281 56.988281 60.199219 56.128906 56.976562 54.722656 L 55.214844 53.964844 C 50.128906 51.800781 46.757812 49.082031 46.757812 43.34375 C 46.757812 38.058594 50.785156 34.027344 57.078125 34.027344 C 61.558594 34.027344 64.78125 35.589844 67.097656 39.667969 L 61.609375 43.191406 C 60.398438 41.027344 59.089844 40.171875 57.078125 40.171875 C 55.011719 40.171875 53.703125 41.480469 53.703125 43.191406 C 53.703125 45.308594 55.011719 46.164062 58.035156 47.472656 L 59.796875 48.226562 C 65.785156 50.796875 69.160156 53.414062 69.160156 59.300781 C 69.160156 65.644531 64.175781 69.121094 57.480469 69.121094 C 50.9375 69.121094 46.707031 66 44.644531 61.921875 "/>
</g>
</svg>
