<?xml version="1.0" encoding="UTF-8"?>
<svg xmlns="http://www.w3.org/2000/svg" xmlns:xlink="http://www.w3.org/1999/xlink" width="32px" height="32px" viewBox="0 0 32 32" version="1.1">
<g id="surface1">
<path style=" stroke:none;fill-rule:nonzero;fill:rgb(38.039216%,85.490197%,98.431373%);fill-opacity:1;" d="M 18.136719 16 C 18.136719 14.425781 17.179688 13.148438 16 13.148438 C 14.820312 13.148438 13.863281 14.425781 13.863281 16 C 13.863281 17.574219 14.820312 18.851562 16 18.851562 C 17.179688 18.851562 18.136719 17.574219 18.136719 16 Z M 18.136719 16 "/>
<path style=" stroke:none;fill-rule:nonzero;fill:rgb(38.039216%,85.490197%,98.431373%);fill-opacity:1;" d="M 24.117188 11.300781 C 23.707031 11.101562 23.273438 10.898438 22.824219 10.726562 C 22.9375 10.125 23.03125 9.523438 23.105469 8.949219 C 23.5 5.648438 23.070312 3.324219 21.867188 2.425781 C 21.511719 2.148438 21.117188 2.023438 20.667969 2.023438 C 19.355469 2.023438 17.6875 3.324219 16 5.5 C 14.3125 3.324219 12.644531 2.023438 11.332031 2.023438 C 10.882812 2.023438 10.488281 2.148438 10.132812 2.425781 C 8.929688 3.351562 8.5 5.675781 8.894531 8.949219 C 8.96875 9.523438 9.0625 10.125 9.175781 10.726562 C 8.726562 10.898438 8.292969 11.074219 7.882812 11.300781 C 5.539062 12.5 4.261719 14.148438 4.261719 16 C 4.261719 17.851562 5.554688 19.5 7.882812 20.699219 C 8.292969 20.898438 8.726562 21.101562 9.175781 21.273438 C 9.0625 21.875 8.96875 22.476562 8.894531 23.050781 C 8.5 26.351562 8.929688 28.675781 10.132812 29.574219 C 10.488281 29.851562 10.882812 29.976562 11.332031 29.976562 C 12.664062 29.976562 14.332031 28.675781 16 26.5 C 17.6875 28.675781 19.355469 29.976562 20.667969 29.976562 C 21.117188 29.976562 21.511719 29.851562 21.867188 29.574219 C 23.070312 28.648438 23.5 26.324219 23.105469 23.050781 C 23.03125 22.476562 22.9375 21.875 22.824219 21.273438 C 23.273438 21.101562 23.707031 20.925781 24.117188 20.699219 C 26.460938 19.5 27.738281 17.851562 27.738281 16 C 27.738281 14.148438 26.460938 12.5 24.117188 11.300781 Z M 21.34375 3.675781 C 22.113281 4.273438 22.375 6.125 22.054688 8.75 C 22 9.273438 21.90625 9.824219 21.792969 10.398438 C 20.820312 10.101562 19.789062 9.898438 18.699219 9.773438 C 18.0625 8.574219 17.40625 7.5 16.75 6.523438 C 18.136719 4.699219 19.542969 3.449219 20.6875 3.449219 C 20.929688 3.449219 21.15625 3.523438 21.34375 3.675781 Z M 19.242188 18.5 C 18.90625 19.300781 18.511719 20.101562 18.101562 20.898438 C 17.40625 20.976562 16.710938 21 16 21 C 15.269531 21 14.574219 20.976562 13.898438 20.898438 C 13.488281 20.101562 13.113281 19.300781 12.773438 18.5 C 12.417969 17.675781 12.082031 16.824219 11.78125 16 C 12.082031 15.175781 12.417969 14.324219 12.773438 13.5 C 13.113281 12.699219 13.507812 11.898438 13.917969 11.101562 C 14.613281 11.023438 15.304688 11 16.019531 11 C 16.75 11 17.445312 11.023438 18.117188 11.101562 C 18.53125 11.898438 18.90625 12.699219 19.242188 13.5 C 19.601562 14.324219 19.9375 15.175781 20.238281 16 C 19.917969 16.824219 19.601562 17.648438 19.242188 18.5 Z M 20.800781 17.675781 C 21.082031 18.550781 21.304688 19.398438 21.511719 20.25 C 20.875 20.449219 20.199219 20.601562 19.488281 20.726562 C 19.710938 20.25 19.957031 19.75 20.164062 19.226562 C 20.386719 18.699219 20.59375 18.175781 20.800781 17.675781 Z M 16 24.449219 C 15.550781 23.800781 15.117188 23.101562 14.707031 22.375 C 15.136719 22.398438 15.570312 22.425781 16 22.425781 C 16.429688 22.425781 16.863281 22.398438 17.292969 22.375 C 16.882812 23.101562 16.449219 23.800781 16 24.449219 Z M 12.511719 20.699219 C 11.800781 20.574219 11.125 20.425781 10.488281 20.226562 C 10.695312 19.398438 10.917969 18.523438 11.199219 17.648438 C 11.40625 18.148438 11.613281 18.675781 11.835938 19.175781 C 12.0625 19.726562 12.289062 20.199219 12.511719 20.699219 Z M 11.199219 14.324219 C 10.917969 13.449219 10.695312 12.601562 10.488281 11.75 C 11.125 11.550781 11.800781 11.398438 12.511719 11.273438 C 12.289062 11.75 12.042969 12.25 11.835938 12.773438 C 11.613281 13.300781 11.40625 13.824219 11.199219 14.324219 Z M 16 7.550781 C 16.449219 8.199219 16.882812 8.898438 17.292969 9.625 C 16.863281 9.601562 16.429688 9.574219 16 9.574219 C 15.570312 9.574219 15.136719 9.601562 14.707031 9.625 C 15.117188 8.898438 15.550781 8.199219 16 7.550781 Z M 20.164062 12.800781 L 19.488281 11.300781 C 20.199219 11.425781 20.875 11.574219 21.511719 11.773438 C 21.304688 12.601562 21.082031 13.476562 20.800781 14.351562 C 20.59375 13.824219 20.386719 13.300781 20.164062 12.800781 Z M 9.945312 8.75 C 9.625 6.125 9.886719 4.273438 10.65625 3.675781 C 10.84375 3.523438 11.070312 3.449219 11.3125 3.449219 C 12.4375 3.449219 13.84375 4.675781 15.25 6.523438 C 14.59375 7.476562 13.9375 8.574219 13.300781 9.773438 C 12.210938 9.898438 11.179688 10.125 10.207031 10.398438 C 10.09375 9.824219 10.019531 9.273438 9.945312 8.75 Z M 5.3125 16 C 5.3125 14.824219 6.382812 13.574219 8.257812 12.648438 C 8.632812 12.449219 9.042969 12.273438 9.457031 12.125 C 9.757812 13.375 10.132812 14.699219 10.582031 16.023438 C 10.132812 17.351562 9.738281 18.648438 9.457031 19.898438 C 6.867188 18.898438 5.3125 17.398438 5.3125 16 Z M 10.65625 28.324219 C 9.886719 27.726562 9.625 25.875 9.945312 23.25 C 10 22.726562 10.09375 22.175781 10.207031 21.601562 C 11.179688 21.898438 12.210938 22.101562 13.300781 22.226562 C 13.9375 23.425781 14.59375 24.5 15.25 25.476562 C 13.863281 27.300781 12.457031 28.550781 11.3125 28.550781 C 11.070312 28.550781 10.84375 28.476562 10.65625 28.324219 Z M 22.054688 23.25 C 22.375 25.875 22.113281 27.726562 21.34375 28.324219 C 21.15625 28.476562 20.929688 28.550781 20.6875 28.550781 C 19.5625 28.550781 18.15625 27.324219 16.75 25.476562 C 17.40625 24.523438 18.0625 23.425781 18.699219 22.226562 C 19.789062 22.101562 20.820312 21.875 21.792969 21.601562 C 21.90625 22.175781 21.980469 22.726562 22.054688 23.25 Z M 23.742188 19.351562 C 23.367188 19.550781 22.957031 19.726562 22.542969 19.875 C 22.242188 18.625 21.867188 17.300781 21.417969 15.976562 C 21.867188 14.648438 22.261719 13.351562 22.542969 12.101562 C 25.132812 13.101562 26.6875 14.601562 26.6875 16 C 26.6875 17.175781 25.601562 18.425781 23.742188 19.351562 Z M 23.742188 19.351562 "/>
</g>
</svg>
