<?xml version="1.0" standalone="no"?>
<!DOCTYPE svg PUBLIC "-//W3C//DTD SVG 1.0//EN" "http://www.w3.org/TR/2001/REC-SVG-20010904/DTD/svg10.dtd">
<svg xmlns="http://www.w3.org/2000/svg" xmlns:xlink="http://www.w3.org/1999/xlink" id="body_1" width="1024" height="768">

<g transform="matrix(8 0 0 8 128 -0)">
	<g>
		<path  d="M56.55078 48C 56.55078 43.277344 52.722656 39.44922 48 39.44922C 43.277344 39.44922 39.44922 43.277344 39.44922 48C 39.44922 52.722656 43.277344 56.55078 48 56.55078C 52.722656 56.55078 56.55078 52.722656 56.55078 48z" stroke="none"  fill="#61DAFB" fill-rule="nonzero" />
		<path  d="M80.47656 33.898438C 78.82422 33.30078 77.10156 32.69922 75.30078 32.17578C 75.75 30.375 76.125 28.574219 76.42578 26.851562C 78 16.949219 76.27344 9.976562 71.47656 7.273438C 70.05078 6.449219 68.47656 6.074219 66.67578 6.074219C 61.42578 6.074219 54.75 9.976562 48 16.5C 41.25 9.976562 34.57422 6.074219 29.324219 6.074219C 27.523438 6.074219 25.949219 6.449219 24.523438 7.273438C 19.726562 10.050781 18 17.023438 19.574219 26.851562C 19.875 28.574219 20.25 30.375 20.699219 32.17578C 18.898438 32.69922 17.175781 33.226562 15.523438 33.898438C 6.148438 37.5 1.050781 42.44922 1.050781 48C 1.050781 53.55078 6.226562 58.5 15.523438 62.101562C 17.175781 62.69922 18.898438 63.30078 20.699219 63.82422C 20.25 65.625 19.875 67.42578 19.574219 69.14844C 18 79.05078 19.726562 86.02344 24.523438 88.72656C 25.949219 89.55078 27.523438 89.92578 29.324219 89.92578C 34.648438 89.92578 41.32422 86.02344 48 79.5C 54.75 86.02344 61.42578 89.92578 66.67578 89.92578C 68.47656 89.92578 70.05078 89.55078 71.47656 88.72656C 76.27344 85.94922 78 78.97656 76.42578 69.14844C 76.125 67.42578 75.75 65.625 75.30078 63.82422C 77.10156 63.30078 78.82422 62.773438 80.47656 62.101562C 89.85156 58.5 94.94922 53.55078 94.94922 48C 94.94922 42.44922 89.85156 37.5 80.47656 33.898438zM69.375 11.023438C 72.44922 12.824219 73.5 18.375 72.22656 26.25C 72 27.824219 71.625 29.476562 71.17578 31.199219C 67.27344 30.300781 63.148438 29.699219 58.80078 29.324219C 56.25 25.726562 53.625 22.5 51 19.574219C 56.55078 14.101562 62.17578 10.351562 66.75 10.351562C 67.72656 10.351562 68.625 10.574219 69.375 11.023438zM60.976562 55.5C 59.625 57.898438 58.05078 60.30078 56.398438 62.69922C 53.625 62.92578 50.851562 63 48 63C 45.07422 63 42.30078 62.92578 39.601562 62.69922C 37.94922 60.30078 36.44922 57.898438 35.101562 55.5C 33.67578 53.023438 32.32422 50.476562 31.125 48C 32.32422 45.523438 33.67578 42.976562 35.101562 40.5C 36.44922 38.101562 38.023438 35.69922 39.67578 33.30078C 42.44922 33.07422 45.226562 33 48.07422 33C 51 33 53.773438 33.07422 56.476562 33.30078C 58.125 35.69922 59.625 38.101562 60.976562 40.5C 62.398438 42.976562 63.75 45.523438 64.94922 48C 63.67578 50.476562 62.398438 52.94922 60.976562 55.5zM67.19922 53.023438C 68.32422 55.648438 69.22656 58.19922 70.05078 60.75C 67.5 61.351562 64.80078 61.80078 61.94922 62.17578C 62.851562 60.75 63.82422 59.25 64.64844 57.67578C 65.55078 56.101562 66.375 54.523438 67.19922 53.023438zM48 73.35156C 46.19922 71.39844 44.476562 69.30078 42.82422 67.125C 44.55078 67.19922 46.273438 67.27344 48 67.27344C 49.726562 67.27344 51.44922 67.19922 53.17578 67.125C 51.523438 69.30078 49.80078 71.39844 48 73.35156zM34.05078 62.101562C 31.199219 61.726562 28.5 61.273438 25.949219 60.67578C 26.773438 58.19922 27.675781 55.57422 28.800781 52.94922C 29.625 54.44922 30.449219 56.023438 31.351562 57.523438C 32.25 59.17578 33.148438 60.601562 34.05078 62.101562zM28.800781 42.976562C 27.675781 40.351562 26.773438 37.80078 25.949219 35.25C 28.5 34.648438 31.199219 34.19922 34.05078 33.82422C 33.148438 35.25 32.17578 36.75 31.351562 38.32422C 30.449219 39.898438 29.625 41.476562 28.800781 42.976562zM48 22.648438C 49.80078 24.601562 51.523438 26.699219 53.17578 28.875C 51.44922 28.800781 49.726562 28.726562 48 28.726562C 46.273438 28.726562 44.55078 28.800781 42.82422 28.875C 44.476562 26.699219 46.19922 24.601562 48 22.648438zM64.64844 38.398438L61.94922 33.898438C 64.80078 34.273438 67.5 34.726562 70.05078 35.32422C 69.22656 37.80078 68.32422 40.42578 67.19922 43.05078C 66.375 41.476562 65.55078 39.898438 64.64844 38.398438zM23.773438 26.25C 22.5 18.375 23.550781 12.824219 26.625 11.023438C 27.375 10.574219 28.273438 10.351562 29.25 10.351562C 33.75 10.351562 39.375 14.023438 45 19.574219C 42.375 22.425781 39.75 25.726562 37.19922 29.324219C 32.851562 29.699219 28.726562 30.375 24.824219 31.199219C 24.375 29.476562 24.074219 27.824219 23.773438 26.25zM5.25 48C 5.25 44.476562 9.523438 40.726562 17.023438 37.94922C 18.523438 37.351562 20.175781 36.82422 21.824219 36.375C 23.023438 40.125 24.523438 44.101562 26.324219 48.07422C 24.523438 52.05078 22.949219 55.94922 21.824219 59.69922C 11.476562 56.69922 5.25 52.19922 5.25 48zM26.625 84.97656C 23.550781 83.17578 22.5 77.625 23.773438 69.75C 24 68.17578 24.375 66.52344 24.824219 64.80078C 28.726562 65.69922 32.851562 66.30078 37.19922 66.67578C 39.75 70.27344 42.375 73.5 45 76.42578C 39.44922 81.89844 33.82422 85.64844 29.25 85.64844C 28.273438 85.64844 27.375 85.42578 26.625 84.97656zM72.22656 69.75C 73.5 77.625 72.44922 83.17578 69.375 84.97656C 68.625 85.42578 67.72656 85.64844 66.75 85.64844C 62.25 85.64844 56.625 81.97656 51 76.42578C 53.625 73.57422 56.25 70.27344 58.80078 66.67578C 63.148438 66.30078 67.27344 65.625 71.17578 64.80078C 71.625 66.52344 71.92578 68.17578 72.22656 69.75zM78.97656 58.05078C 77.47656 58.648438 75.82422 59.17578 74.17578 59.625C 72.97656 55.875 71.47656 51.898438 69.67578 47.92578C 71.47656 43.94922 73.05078 40.05078 74.17578 36.30078C 84.52344 39.30078 90.75 43.80078 90.75 48C 90.75 51.523438 86.39844 55.273438 78.97656 58.05078z" stroke="none"  fill="#61DAFB" fill-rule="nonzero" />
	</g>
</g>
</svg>
