<?xml version="1.0" encoding="UTF-8"?>
<svg xmlns="http://www.w3.org/2000/svg" xmlns:xlink="http://www.w3.org/1999/xlink" width="px" height="px" viewBox="0 0 96 96" version="1.1">
<g id="surface1">
<path style=" stroke:none;fill-rule:nonzero;fill:rgb(21.960784%,74.117649%,97.254902%);fill-opacity:1;" d="M 48.003906 19.203125 C 35.203125 19.203125 27.207031 25.597656 24.003906 38.398438 C 28.800781 32 34.402344 29.601562 40.800781 31.203125 C 44.453125 32.113281 47.066406 34.761719 49.957031 37.695312 C 54.664062 42.472656 60.109375 48 72.003906 48 C 84.800781 48 92.800781 41.601562 96.003906 28.796875 C 91.203125 35.199219 85.601562 37.601562 79.203125 36 C 75.550781 35.089844 72.945312 32.441406 70.046875 29.503906 C 65.347656 24.730469 59.902344 19.203125 48.003906 19.203125 Z M 24.003906 48 C 11.203125 48 3.207031 54.398438 0.00390625 67.203125 C 4.800781 60.800781 10.402344 58.398438 16.800781 60 C 20.453125 60.910156 23.066406 63.558594 25.957031 66.496094 C 30.664062 71.269531 36.109375 76.796875 48.003906 76.796875 C 60.800781 76.796875 68.800781 70.402344 72.003906 57.601562 C 67.203125 64 61.601562 66.398438 55.203125 64.796875 C 51.550781 63.886719 48.945312 61.238281 46.046875 58.304688 C 41.347656 53.527344 35.902344 48 24.003906 48 Z M 24.003906 48 "/>
</g>
</svg>
